<svg width="25" height="25" viewBox="0 0 25 25" fill="none" xmlns="http://www.w3.org/2000/svg">
<g clip-path="url(#clip0_1_90)">
<path d="M8.86061 1.28937C6.46264 2.12125 4.39463 3.70018 2.96035 5.79425C1.52606 7.88832 0.801099 10.3871 0.891944 12.9237C0.98279 15.4602 1.88466 17.9008 3.46507 19.8869C5.04549 21.873 7.22115 23.2999 9.67249 23.9581C11.6598 24.4709 13.742 24.4934 15.74 24.0237C17.55 23.6172 19.2233 22.7476 20.5962 21.5C22.0251 20.1619 23.0623 18.4596 23.5962 16.5762C24.1764 14.5281 24.2797 12.3743 23.8981 10.28H12.7381V14.9094H19.2012C19.0721 15.6477 18.7953 16.3524 18.3874 16.9813C17.9795 17.6102 17.449 18.1503 16.8275 18.5694C16.0384 19.0916 15.1487 19.4429 14.2156 19.6006C13.2799 19.7747 12.3201 19.7747 11.3844 19.6006C10.4359 19.4047 9.53869 19.0133 8.74999 18.4512C7.48277 17.5542 6.53126 16.2799 6.03124 14.81C5.52291 13.3126 5.52291 11.6893 6.03124 10.1919C6.38716 9.14228 6.97555 8.18663 7.75249 7.39625C8.6416 6.47515 9.76724 5.81674 11.0059 5.49326C12.2446 5.16979 13.5484 5.19374 14.7744 5.5625C15.7321 5.85635 16.6079 6.37002 17.3319 7.0625C18.0606 6.3375 18.7881 5.61062 19.5144 4.88187C19.8894 4.49 20.2981 4.11687 20.6675 3.71562C19.5622 2.68722 18.265 1.88694 16.85 1.36062C14.2732 0.424977 11.4537 0.399833 8.86061 1.28937Z" fill="white"/>
<path d="M8.86064 1.28937C11.4535 0.399232 14.273 0.423714 16.85 1.35875C18.2653 1.88865 19.5619 2.69277 20.6656 3.725C20.2906 4.12625 19.895 4.50125 19.5125 4.89125C18.785 5.6175 18.0581 6.34125 17.3319 7.0625C16.6079 6.37002 15.7321 5.85636 14.7744 5.5625C13.5488 5.19245 12.2451 5.16711 11.0061 5.48927C9.76706 5.81142 8.64073 6.46862 7.75064 7.38875C6.9737 8.17913 6.38532 9.13478 6.02939 10.1844L2.14252 7.175C3.53378 4.41605 5.94267 2.30567 8.86064 1.28937Z" fill="#E33629"/>
<path d="M1.11128 10.1563C1.32004 9.12082 1.66689 8.11812 2.14253 7.175L6.0294 10.1919C5.52107 11.6893 5.52107 13.3126 6.0294 14.81C4.7344 15.81 3.43878 16.815 2.14253 17.825C0.952186 15.4556 0.589153 12.7559 1.11128 10.1563Z" fill="#F8BD00"/>
<path d="M12.7381 10.2781H23.8981C24.2797 12.3724 24.1764 14.5262 23.5963 16.5744C23.0623 18.4578 22.0252 20.16 20.5963 21.4981C19.3419 20.5194 18.0819 19.5481 16.8275 18.5694C17.4494 18.1499 17.9802 17.6092 18.3881 16.9796C18.796 16.3501 19.0726 15.6446 19.2013 14.9056H12.7381C12.7363 13.3644 12.7381 11.8212 12.7381 10.2781Z" fill="#587DBD"/>
<path d="M2.14062 17.825C3.43688 16.825 4.7325 15.82 6.0275 14.81C6.52851 16.2804 7.48138 17.5548 8.75 18.4512C9.54116 19.0107 10.4403 19.399 11.39 19.5912C12.3257 19.7653 13.2855 19.7653 14.2213 19.5912C15.1543 19.4335 16.044 19.0823 16.8331 18.56C18.0875 19.5387 19.3475 20.51 20.6019 21.4887C19.2292 22.737 17.5558 23.6073 15.7456 24.0144C13.7476 24.4841 11.6655 24.4616 9.67813 23.9487C8.10632 23.5291 6.63814 22.7892 5.36563 21.7756C4.01886 20.7062 2.91882 19.3586 2.14062 17.825Z" fill="#319F43"/>
</g>
<defs>
<clipPath id="clip0_1_90">
<rect width="24" height="24" fill="white" transform="translate(0.5 0.5)"/>
</clipPath>
</defs>
</svg>
