<svg width="25" height="25" viewBox="0 0 25 25" fill="none" xmlns="http://www.w3.org/2000/svg">
<path d="M19.7917 11.4583H5.20833C4.05774 11.4583 3.125 12.3911 3.125 13.5417V20.8333C3.125 21.9839 4.05774 22.9167 5.20833 22.9167H19.7917C20.9423 22.9167 21.875 21.9839 21.875 20.8333V13.5417C21.875 12.3911 20.9423 11.4583 19.7917 11.4583Z" stroke="white" stroke-width="2" stroke-linecap="round" stroke-linejoin="round"/>
<g filter="url(#filter0_d_1_101)">
<path d="M7.29169 11.4583V7.29166C7.29169 5.91033 7.84042 4.58557 8.81717 3.60881C9.79392 2.63206 11.1187 2.08333 12.5 2.08333C13.8814 2.08333 15.2061 2.63206 16.1829 3.60881C17.1596 4.58557 17.7084 5.91033 17.7084 7.29166V11.4583" stroke="white" stroke-width="2" stroke-linecap="round" stroke-linejoin="round" shape-rendering="crispEdges"/>
</g>
<defs>
<filter id="filter0_d_1_101" x="2.29169" y="1.08333" width="20.4167" height="19.375" filterUnits="userSpaceOnUse" color-interpolation-filters="sRGB">
<feFlood flood-opacity="0" result="BackgroundImageFix"/>
<feColorMatrix in="SourceAlpha" type="matrix" values="0 0 0 0 0 0 0 0 0 0 0 0 0 0 0 0 0 0 127 0" result="hardAlpha"/>
<feOffset dy="4"/>
<feGaussianBlur stdDeviation="2"/>
<feComposite in2="hardAlpha" operator="out"/>
<feColorMatrix type="matrix" values="0 0 0 0 0 0 0 0 0 0 0 0 0 0 0 0 0 0 0.25 0"/>
<feBlend mode="normal" in2="BackgroundImageFix" result="effect1_dropShadow_1_101"/>
<feBlend mode="normal" in="SourceGraphic" in2="effect1_dropShadow_1_101" result="shape"/>
</filter>
</defs>
</svg>

